<?xml version="1.0" encoding="UTF-8"?>
<svg width="59px" height="70px" viewBox="0 0 59 70" version="1.1" xmlns="http://www.w3.org/2000/svg" xmlns:xlink="http://www.w3.org/1999/xlink">
    <!-- Generator: Sketch 60 (88103) - https://sketch.com -->
    <title>Arrow</title>
    <desc>Created with Sketch.</desc>
    <g id="Page-1" stroke="none" stroke-width="1" fill="none" fill-rule="evenodd">
        <g id="Desktop-Design-v1-Hover-States" transform="translate(-686.000000, -964.000000)">
            <g id="Value-Prop-Section" transform="translate(0.000000, 700.000000)">
                <g id="Arrow" transform="translate(684.000000, 265.000000)">
                    <polygon id="Rectangle" fill="#9025ED" points="20.8 11.2 24.8 5.89609375 24.8 39.2 20.8 39.2"></polygon>
                    <path d="M12.4880724,33.4808882 L16.2114285,29.7575321 C22.4615224,28.1752475 25.8309408,30.7186031 26.3196836,37.3875989 C26.7658407,43.4755044 33.6000197,55.3420032 28.0431061,68.8581198 C27.6895013,69.7181949 24.3183017,70.0375771 17.9295072,69.8162663 L12.4880724,66.2808882 L12.4880724,33.4808882 Z" id="Rectangle" fill="#9025ED" transform="translate(21.348850, 49.593301) rotate(-45.000000) translate(-21.348850, -49.593301) "></path>
                    <path d="M27.0273747,2.86541712 L23.1961395,6.95248272 L23.0254563,7.13405232 C21.6331635,8.64065232 20.7824691,10.6554139 20.7824691,12.8688523 L20.7824691,33.5576779" id="Stroke-1" stroke="#9025ED" stroke-width="2" stroke-linecap="round" stroke-linejoin="round"></path>
                    <path d="M9.53059712,31.9847875 L5.87704352,35.8105795 L5.87043392,35.8125235 C2.56913312,39.1134355 2.56913312,44.4660451 5.87043392,47.7669571 L22.7910099,64.6879219 C22.9340883,64.8543283 23.0771667,65.0211235 23.2346307,65.1785875 C24.8913075,66.8356531 27.0646995,67.6595203 29.2357587,67.6533345 C31.4072067,67.6595203 33.5798211,66.8356531 35.2364979,65.1785875 L35.2368867,65.1785875 C35.3943507,65.0211235 35.5378179,64.8543283 35.6805075,64.6879219 L38.4087171,61.9597123" id="Stroke-3" stroke="#9025ED" stroke-width="2" stroke-linecap="round" stroke-linejoin="round"></path>
                    <path d="M56.8552165,31.8625488 L56.8548277,31.8625488 C53.5204789,28.5282 48.1142149,28.5282 44.7794773,31.8625488 L41.7468373,34.8955776 L41.7468373,8.7332256 C41.7468373,4.0174704 37.9237669,0.1947888 33.2080117,0.1947888 C28.4922565,0.1947888 24.6695749,4.0174704 24.6695749,8.7332256 L24.6695749,34.8955776 L21.6820357,31.9080384 C18.3472981,28.5736896 12.9410341,28.5736896 9.60668528,31.9080384 L9.60668528,31.9084272 C6.27194768,35.242776 6.27194768,40.6494288 9.60668528,43.9837776 L26.6983333,61.0758144 C26.8425781,61.243776 26.9872117,61.4121264 27.1466197,61.5715344 C28.8196261,63.2449296 31.0147909,64.0769616 33.2080117,64.07116 C35.4008437,64.0769616 37.5963973,63.2449296 39.2697925,61.5715344 C39.4288117,61.4121264 39.5738341,61.243776 39.7176901,61.0758144 L56.8552165,43.938288 C60.1895653,40.6035504 60.1895653,35.1972864 56.8552165,31.8625488" id="Fill-5" fill="#FFFFFF"></path>
                    <path d="M56.8552165,31.8625488 L56.8548277,31.8625488 C53.5204789,28.5282 48.1142149,28.5282 44.7794773,31.8625488 L41.7468373,34.8955776 L41.7468373,8.7332256 C41.7468373,4.0174704 37.9237669,0.1947888 33.2080117,0.1947888 C28.4922565,0.1947888 24.6695749,4.0174704 24.6695749,8.7332256 L24.6695749,34.8955776 L21.6820357,31.9080384 C18.3472981,28.5736896 12.9410341,28.5736896 9.60668528,31.9080384 L9.60668528,31.9084272 C6.27194768,35.242776 6.27194768,40.6494288 9.60668528,43.9837776 L26.6983333,61.0758144 C26.8425781,61.243776 26.9872117,61.4121264 27.1466197,61.5715344 C28.8196261,63.2449296 31.0147909,64.0769616 33.2080117,64.07116 C35.4008437,64.0769616 37.5963973,63.2449296 39.2697925,61.5715344 C39.4288117,61.4121264 39.5738341,61.243776 39.7176901,61.0758144 L56.8552165,43.938288 C60.1895653,40.6035504 60.1895653,35.1972864 56.8552165,31.8625488 Z" id="Stroke-7" stroke="#9025ED" stroke-width="2" stroke-linecap="round" stroke-linejoin="round"></path>
                </g>
            </g>
        </g>
    </g>
</svg>